<svg width="40" height="41" viewBox="0 0 40 41" fill="none" xmlns="http://www.w3.org/2000/svg">
<rect width="40" height="40.0771" rx="8" fill="#F9AA01"/>
<path d="M21.9708 7.53762C21.1573 6.8387 19.8362 6.8387 19.0227 7.53762L8.61011 16.4839C7.79663 17.1828 7.79663 18.3179 8.61011 19.0168C9.4236 19.7157 10.7447 19.7157 11.5582 19.0168L18.4175 13.1179V30.2723C18.4175 31.262 19.3481 32.0616 20.5 32.0616C21.6519 32.0616 22.5825 31.262 22.5825 30.2723V13.1179L29.4418 19.0112C30.2553 19.7101 31.5764 19.7101 32.3899 19.0112C33.2034 18.3123 33.2034 17.1772 32.3899 16.4783L21.9773 7.53203L21.9708 7.53762Z" fill="#1B1426"/>
</svg>
