<svg width="16" height="19" viewBox="0 0 16 19" fill="none" xmlns="http://www.w3.org/2000/svg">
<path d="M5.03582 0.656836L4.78897 1.1875H1.49753C0.890677 1.1875 0.400391 1.71816 0.400391 2.375C0.400391 3.03184 0.890677 3.5625 1.49753 3.5625H14.6633C15.2701 3.5625 15.7604 3.03184 15.7604 2.375C15.7604 1.71816 15.2701 1.1875 14.6633 1.1875H11.3718L11.125 0.656836C10.9398 0.252344 10.5593 0 10.1444 0H6.0164C5.60154 0 5.22097 0.252344 5.03582 0.656836V0.656836ZM14.6633 4.75H1.49753L2.22439 17.3301C2.27925 18.2689 2.99925 19 3.86668 19H12.2941C13.1615 19 13.8815 18.2689 13.9364 17.3301L14.6633 4.75Z" fill="#F9AA01"/>
</svg>
